<svg width="10" height="11" viewBox="0 0 10 11" fill="none" xmlns="http://www.w3.org/2000/svg">
<path d="M0.948153 11V0.0909088H5.31605C6.11861 0.0909088 6.788 0.209872 7.32422 0.447798C7.86044 0.685724 8.26349 1.01598 8.53338 1.43857C8.80327 1.8576 8.93821 2.34055 8.93821 2.88743C8.93821 3.31357 8.85298 3.68821 8.68253 4.01136C8.51207 4.33097 8.2777 4.59375 7.9794 4.79972C7.68466 5.00213 7.3473 5.14595 6.96733 5.23118V5.33771C7.38281 5.35547 7.77166 5.47266 8.13388 5.68928C8.49965 5.90589 8.79616 6.20952 9.02344 6.60014C9.25071 6.98722 9.36435 7.44886 9.36435 7.98509C9.36435 8.56392 9.22053 9.08061 8.93288 9.53516C8.64879 9.98615 8.22798 10.343 7.67045 10.6058C7.11293 10.8686 6.42578 11 5.60902 11H0.948153ZM3.25462 9.11435H5.13494C5.7777 9.11435 6.24645 8.99183 6.54119 8.7468C6.83594 8.49822 6.98331 8.16797 6.98331 7.75604C6.98331 7.45419 6.91051 7.18786 6.76492 6.95703C6.61932 6.72621 6.41158 6.5451 6.14169 6.41371C5.87536 6.28232 5.55753 6.21662 5.18821 6.21662H3.25462V9.11435ZM3.25462 4.65589H4.96449C5.28054 4.65589 5.56108 4.60085 5.80611 4.49077C6.05469 4.37713 6.25 4.21733 6.39205 4.01136C6.53764 3.8054 6.61044 3.55859 6.61044 3.27095C6.61044 2.87678 6.47017 2.55895 6.18963 2.31747C5.91264 2.07599 5.51847 1.95526 5.0071 1.95526H3.25462V4.65589Z" fill="#0F172A"/>
</svg>