<svg width="20" height="18" viewBox="0 0 20 18" fill="none" xmlns="http://www.w3.org/2000/svg">
<path fill-rule="evenodd" clip-rule="evenodd" d="M2.57458 2.96243C1.66663 4.06878 1.66663 5.71252 1.66663 9C1.66663 12.2875 1.66663 13.9312 2.57458 15.0376C2.7408 15.2401 2.92652 15.4258 3.12905 15.592C4.2354 16.5 5.87915 16.5 9.16663 16.5H10.8333C14.1208 16.5 15.7645 16.5 16.8709 15.592C17.0734 15.4258 17.2591 15.2401 17.4253 15.0376C18.3333 13.9312 18.3333 12.2875 18.3333 9C18.3333 6.46426 18.3333 4.90647 17.9166 3.81892V12.75C17.1119 12.75 16.3357 12.4521 15.7375 11.9138L15.1324 11.3692C14.6991 10.9792 14.4825 10.7842 14.2572 10.6669C13.6782 10.3653 12.9884 10.3653 12.4094 10.6669C12.1841 10.7842 11.9675 10.9792 11.5342 11.3692L11.4223 11.4699L11.4223 11.4699C11.038 11.8158 10.8458 11.9887 10.6553 12.055C10.3125 12.1742 9.93211 12.0983 9.66128 11.8568C9.5107 11.7226 9.39838 11.4867 9.17374 11.0149L9.17374 11.0149C8.70511 10.0308 8.4708 9.53876 8.15154 9.26375C7.62023 8.80608 6.88803 8.66011 6.22183 8.87904C5.82152 9.0106 5.42052 9.37149 4.61853 10.0933L2.91663 11.625V2.59526C2.79511 2.71031 2.68086 2.83293 2.57458 2.96243Z" fill="#222222"/>
<path d="M2.66663 9C2.66663 7.33176 2.66826 6.1685 2.77321 5.28068C2.87554 4.41492 3.06407 3.9423 3.34759 3.59682C3.47226 3.44492 3.61154 3.30563 3.76345 3.18097C4.10893 2.89744 4.58155 2.70892 5.4473 2.60658C6.33513 2.50164 7.49839 2.5 9.16662 2.5H10.8333C12.5015 2.5 13.6648 2.50164 14.5526 2.60658C15.4184 2.70892 15.891 2.89744 16.2365 3.18097L16.8709 2.40796L16.2365 3.18097C16.3884 3.30563 16.5277 3.44492 16.6523 3.59682C16.9359 3.9423 17.1244 4.41492 17.2267 5.28068C17.3317 6.1685 17.3333 7.33176 17.3333 9C17.3333 10.6682 17.3317 11.8315 17.2267 12.7193C17.1244 13.5851 16.9359 14.0577 16.6523 14.4032C16.5277 14.5551 16.3884 14.6944 16.2365 14.819C15.891 15.1026 15.4184 15.2911 14.5526 15.3934C13.6648 15.4984 12.5015 15.5 10.8333 15.5H9.16663C7.49839 15.5 6.33513 15.4984 5.4473 15.3934C4.58155 15.2911 4.10893 15.1026 3.76345 14.819C3.61154 14.6944 3.47226 14.5551 3.34759 14.4032L2.57458 15.0376L3.34759 14.4032C3.06407 14.0577 2.87554 13.5851 2.77321 12.7193C2.66826 11.8315 2.66663 10.6682 2.66663 9Z" stroke="#222222" stroke-width="2"/>
<ellipse cx="12.5" cy="6.75" rx="1.66667" ry="1.5" fill="#222222"/>
</svg>
