<svg width="14" height="13" viewBox="0 0 14 13" fill="none" xmlns="http://www.w3.org/2000/svg">
<path id="Vector" fill-rule="evenodd" clip-rule="evenodd" d="M6.97801 0.281636C8.76801 0.281636 8.99268 0.288573 9.69468 0.318844C10.766 0.36488 11.706 0.613348 12.4613 1.32785C13.216 2.04173 13.4787 2.93155 13.528 3.94497C13.5593 4.60902 13.5667 4.82155 13.5667 6.51416C13.5667 8.20677 13.56 8.41866 13.5273 9.08398C13.4787 10.0968 13.216 10.986 12.4607 11.7005C11.706 12.4143 10.7653 12.6628 9.69468 12.7095C8.99268 12.7391 8.76801 12.7454 6.97801 12.7454C5.18868 12.7454 4.96468 12.7391 4.26201 12.7088C3.19135 12.6628 2.25068 12.4143 1.49535 11.7005C0.740681 10.986 0.478015 10.0961 0.430015 9.08335C0.398015 8.41866 0.390015 8.20677 0.390015 6.51416C0.390015 4.82092 0.398015 4.60965 0.430015 3.94497C0.478015 2.93092 0.740681 2.04173 1.49535 1.32785C2.25068 0.613348 3.19135 0.36488 4.26201 0.318844C4.96468 0.288573 5.18868 0.281636 6.97801 0.281636ZM6.97801 1.40416C5.21935 1.40416 5.01135 1.41047 4.31668 1.44137C3.56601 1.4729 2.87001 1.61542 2.33468 2.12245C1.80001 2.62821 1.64935 3.28596 1.61601 3.99542C1.58401 4.65254 1.57735 4.84993 1.57735 6.51416C1.57735 8.17776 1.58401 8.37452 1.61601 9.03164C1.64935 9.74173 1.80001 10.4001 2.33468 10.9065C2.87068 11.4129 3.56601 11.5548 4.31668 11.5863C5.01135 11.6166 5.21935 11.6229 6.97801 11.6229C8.73802 11.6229 8.94602 11.6166 9.64001 11.5863C10.3907 11.5548 11.0867 11.4129 11.622 10.9065C12.1567 10.3995 12.3073 9.74173 12.3407 9.03164C12.3727 8.37452 12.3793 8.17776 12.3793 6.51416C12.3793 4.84929 12.3727 4.65254 12.3407 3.99605C12.3073 3.28596 12.1567 2.62758 11.622 2.12245C11.086 1.61542 10.3907 1.4729 9.64001 1.44137C8.94668 1.4111 8.73735 1.40416 6.97801 1.40416ZM6.97801 8.59083C7.26948 8.59567 7.55906 8.54556 7.82983 8.44341C8.10061 8.34126 8.34716 8.18912 8.55511 7.99586C8.76307 7.80261 8.92825 7.57211 9.04102 7.31783C9.15379 7.06354 9.21189 6.79055 9.21194 6.51479C9.21198 6.23904 9.15396 5.96603 9.04128 5.71171C8.92859 5.45739 8.76348 5.22685 8.55559 5.03354C8.3477 4.84022 8.10119 4.68801 7.83045 4.58578C7.55971 4.48356 7.27015 4.43336 6.97868 4.43812C6.40316 4.44761 5.85459 4.67054 5.45113 5.0589C5.04768 5.44726 4.8216 5.96998 4.8216 6.51447C4.8216 7.05897 5.04768 7.58169 5.45113 7.97005C5.85459 8.35841 6.40316 8.58134 6.97868 8.59083H6.97801ZM6.97801 3.31371C7.42636 3.30776 7.87149 3.38615 8.28753 3.54433C8.70357 3.70251 9.08223 3.93733 9.40151 4.23514C9.72079 4.53295 9.97431 4.88781 10.1474 5.2791C10.3204 5.6704 10.4095 6.09032 10.4095 6.51447C10.4095 6.93863 10.3204 7.35855 10.1474 7.74984C9.97431 8.14114 9.72079 8.496 9.40151 8.79381C9.08223 9.09162 8.70357 9.32644 8.28753 9.48462C7.87149 9.6428 7.42636 9.72119 6.97801 9.71524C6.08884 9.70343 5.2403 9.36102 4.61593 8.76204C3.99155 8.16306 3.64151 7.35567 3.64151 6.51447C3.64151 5.67328 3.99155 4.86589 4.61593 4.26691C5.2403 3.66793 6.08884 3.32552 6.97801 3.31371ZM10.496 2.43965C10.5999 2.4397 10.7027 2.45909 10.7987 2.49673C10.8946 2.53437 10.9818 2.58952 11.0552 2.65903C11.1287 2.72854 11.1869 2.81105 11.2266 2.90185C11.2663 2.99265 11.2867 3.08995 11.2867 3.18821C11.2866 3.28647 11.2661 3.38376 11.2263 3.47453C11.1865 3.56529 11.1282 3.64776 11.0548 3.71721C10.9813 3.78666 10.8941 3.84174 10.7981 3.8793C10.7021 3.91687 10.5992 3.93618 10.4953 3.93614C10.2856 3.93614 10.0844 3.85731 9.93603 3.71699C9.78769 3.57666 9.70435 3.38634 9.70435 3.1879C9.70435 2.98945 9.78769 2.79913 9.93603 2.65881C10.0844 2.51849 10.2862 2.43965 10.496 2.43965Z" fill="#475569"/>
</svg>
