<svg width="24" height="24" viewBox="0 0 24 24" fill="none" xmlns="http://www.w3.org/2000/svg">
<path fill-rule="evenodd" clip-rule="evenodd" d="M9.67797 12.0872L6.24491 10.9428L6.24491 10.9428C3.89169 10.1584 2.71509 9.76619 2.71509 9.04543C2.71509 8.32467 3.8917 7.93247 6.24491 7.14807L17.1297 3.5198C18.7855 2.96787 19.6134 2.6919 20.0504 3.12892C20.4874 3.56594 20.2115 4.39383 19.6595 6.04962L16.0313 16.9344C15.2469 19.2876 14.8547 20.4642 14.1339 20.4642C13.4131 20.4642 13.0209 19.2876 12.2365 16.9344L11.0922 13.5014L15.9728 8.62078C16.3633 8.23026 16.3633 7.59709 15.9728 7.20657C15.5822 6.81604 14.9491 6.81604 14.5586 7.20657L9.67797 12.0872Z" fill="#7C3AED"/>
</svg>
