<svg width="32" height="32" viewBox="0 0 32 32" fill="none" xmlns="http://www.w3.org/2000/svg">
<path d="M10.0033 9.30024C10.3799 5.53442 13.5487 2.66666 17.3333 2.66666C21.1179 2.66666 24.2868 5.53443 24.6634 9.30024L25.0455 13.1218C25.1344 14.0111 25.1789 14.4558 25.2708 14.8873C25.4199 15.5872 25.6622 16.264 25.9913 16.8994C26.1942 17.2912 26.4421 17.6631 26.9378 18.4068L28.5937 20.8906C29.5062 22.2593 29.9625 22.9437 29.6798 23.4718C29.3972 24 28.5747 24 26.9296 24H7.73703C6.09201 24 5.2695 24 4.98684 23.4718C4.70419 22.9437 5.16044 22.2593 6.07293 20.8906L7.72882 18.4068C8.22461 17.6631 8.4725 17.2912 8.67539 16.8994C9.00445 16.264 9.24676 15.5872 9.39584 14.8873C9.48775 14.4558 9.53222 14.0111 9.62116 13.1218L10.0033 9.30024Z" fill="#94A3B8"/>
<path d="M14.7575 27.5059C14.9095 27.6476 15.2443 27.7729 15.71 27.8622C16.1757 27.9516 16.7463 28 17.3333 28C17.9204 28 18.491 27.9516 18.9567 27.8622C19.4224 27.7729 19.7572 27.6476 19.9091 27.5059" stroke="#94A3B8" stroke-width="2" stroke-linecap="round"/>
</svg>
