<svg width="15" height="16" viewBox="0 0 15 16" fill="none" xmlns="http://www.w3.org/2000/svg">
<path d="M1 5.83683C1 3.55673 1 2.41667 1.71393 1.70834C2.42785 1 3.5769 1 5.875 1H9.125C11.4231 1 12.5721 1 13.2861 1.70834C14 2.41667 14 3.55673 14 5.83683V11.3408C14 13.5039 14 14.5855 13.314 14.9163C12.628 15.2471 11.7709 14.5789 10.0566 13.2425L9.50792 12.8148C8.54399 12.0633 8.06203 11.6876 7.5 11.6876C6.93797 11.6876 6.45601 12.0633 5.49208 12.8148L4.94344 13.2425C3.22913 14.5789 2.37198 15.2471 1.68599 14.9163C1 14.5855 1 13.5039 1 11.3408V5.83683Z" stroke="#FCD34D" stroke-width="1.7"/>
</svg>
