<svg width="15" height="17" viewBox="0 0 15 17" fill="none" xmlns="http://www.w3.org/2000/svg">
<path d="M1 6.30692C1 4.02682 1 2.88677 1.71393 2.17843C2.42785 1.47009 3.5769 1.47009 5.875 1.47009H9.125C11.4231 1.47009 12.5721 1.47009 13.2861 2.17843C14 2.88677 14 4.02682 14 6.30692V11.8109C14 13.974 14 15.0556 13.314 15.3864C12.628 15.7172 11.7709 15.049 10.0566 13.7126L9.50792 13.2849C8.54399 12.5334 8.06203 12.1577 7.5 12.1577C6.93797 12.1577 6.45601 12.5334 5.49208 13.2849L4.94344 13.7126C3.22913 15.049 2.37198 15.7172 1.68599 15.3864C1 15.0556 1 13.974 1 11.8109V6.30692Z" fill="#FCD34D" stroke="#FCD34D" stroke-width="1.7"/>
</svg>
