<svg width="18" height="18" viewBox="0 0 18 18" fill="none" xmlns="http://www.w3.org/2000/svg">
<g id="&#240;&#159;&#166;&#134; icon &#34;magnifying glass&#34;">
<path id="Vector" d="M7.8155 0.0111491C7.80836 0.0182877 7.79859 0.0222938 7.78849 0.022314C3.49221 0.0308992 0 3.52839 0 7.82664C0 12.1302 3.50081 15.631 7.80435 15.631C8.9761 15.631 10.1302 15.3833 11.1405 14.9038C11.3558 14.8016 11.6124 14.8544 11.7957 15.0066L14.0255 17.2365C14.2314 17.4681 14.4825 17.6553 14.7633 17.7864C15.0442 17.9175 15.3489 17.9899 15.6587 17.999C15.9685 18.0081 16.2769 17.9538 16.565 17.8394C16.853 17.7251 17.1147 17.553 17.3338 17.3338C17.553 17.1147 17.7251 16.853 17.8395 16.565C17.9538 16.2769 18.0081 15.9685 17.999 15.6587C17.9899 15.3489 17.9175 15.0442 17.7864 14.7633C17.6553 14.4825 17.4681 14.2314 17.2365 14.0255L15.0066 11.7957C14.823 11.612 14.7483 11.3307 14.8608 11.0965C15.3391 10.1009 15.631 8.97836 15.631 7.80434C15.631 3.50609 12.1388 0.0086011 7.8425 1.58395e-05C7.8324 -4.33438e-06 7.82263 0.00401043 7.8155 0.0111491ZM7.7932 2.26326C7.80034 2.25612 7.81011 2.2521 7.82021 2.25213C10.9122 2.26056 13.3789 4.73249 13.3789 7.82664C13.3789 9.29832 12.8437 10.6585 11.9072 11.6619C11.8849 11.6842 11.8626 11.7065 11.8403 11.7288C11.735 11.8163 11.638 11.9134 11.5504 12.0187C10.5693 12.9106 9.23143 13.4235 7.78205 13.4235C4.68261 13.4235 2.20752 10.9484 2.20752 7.84894C2.20752 4.75479 4.67417 2.28286 7.76619 2.27443C7.77628 2.2744 7.78606 2.2704 7.7932 2.26326Z" fill="#CBD5E1"/>
</g>
</svg>