<svg width="16" height="13" viewBox="0 0 16 13" fill="none" xmlns="http://www.w3.org/2000/svg">
<path id="Vector" fill-rule="evenodd" clip-rule="evenodd" d="M15.3686 2.19059C14.8179 2.40879 14.2666 2.58348 13.624 2.62762C14.2666 2.27825 14.7253 1.71005 14.9553 1.05609C14.3586 1.40546 13.7153 1.62303 13.0266 1.7542C12.4753 1.18663 11.6953 0.837891 10.8693 0.837891C10.4702 0.838552 10.0752 0.913641 9.70688 1.05886C9.33854 1.20408 9.00408 1.41659 8.72265 1.68421C8.44122 1.95184 8.21833 2.26933 8.06676 2.61852C7.91518 2.96772 7.83788 3.34176 7.83928 3.71924C7.83928 3.93744 7.88528 4.15501 7.93195 4.37447C5.40662 4.2433 3.20262 3.10816 1.68662 1.36131C1.41126 1.7965 1.26823 2.29514 1.27328 2.8023C1.27328 3.80627 1.82462 4.67969 2.60462 5.20312C2.12128 5.20134 1.64671 5.08096 1.22728 4.85375V4.89789C1.22728 6.29474 2.28328 7.42987 3.66062 7.69158C3.38528 7.73573 3.15595 7.77987 2.88062 7.77987C2.69728 7.77987 2.51395 7.77987 2.32995 7.73573C2.69728 8.87086 3.84395 9.70014 5.12995 9.74429C4.11995 10.5294 2.78862 10.9665 1.36595 10.9665C1.13595 10.9665 0.859949 10.9664 0.630615 10.9229C2.00862 11.7087 3.61662 12.1892 5.31462 12.1892C10.8693 12.1892 13.8993 7.82276 13.8993 4.02447V3.67573C14.45 3.2387 14.9553 2.75816 15.3686 2.19059Z" fill="#475569"/>
</svg>
