<svg width="22" height="22" viewBox="0 0 22 22" fill="none" xmlns="http://www.w3.org/2000/svg">
<path fill-rule="evenodd" clip-rule="evenodd" d="M8.78301 11.0504L6.19877 10.189L6.19876 10.189C3.84555 9.40462 2.66895 9.01242 2.66895 8.29166C2.66895 7.5709 3.84555 7.1787 6.19877 6.39429L15.3859 3.3319C17.0417 2.77997 17.8696 2.50401 18.3066 2.94102C18.7437 3.37804 18.4677 4.20593 17.9158 5.86172L14.8534 15.0489C14.069 17.4021 13.6768 18.5787 12.956 18.5787C12.2352 18.5787 11.843 17.4021 11.0586 15.0489L10.1972 12.4647L14.7006 7.96132C15.0911 7.5708 15.0911 6.93763 14.7006 6.54711C14.31 6.15658 13.6769 6.15658 13.2863 6.54711L8.78301 11.0504Z" fill="white"/>
</svg>
