<svg width="16" height="11" viewBox="0 0 16 11" fill="none" xmlns="http://www.w3.org/2000/svg">
<path id="Vector" fill-rule="evenodd" clip-rule="evenodd" d="M6.79733 7.28302V3.39707L10.788 5.35518L6.79733 7.28302ZM15.5473 2.73554C15.5473 2.73554 15.394 1.78581 14.9647 1.3532C14.4113 0.80707 13.7673 0.80707 13.4913 0.77743C11.4333 0.634277 8.33267 0.634277 8.33267 0.634277C8.33267 0.634277 5.23267 0.634277 3.17533 0.77743C2.89867 0.80707 2.25467 0.80707 1.702 1.3532C1.272 1.78581 1.11867 2.73554 1.11867 2.73554C1.11867 2.73554 0.965332 3.85806 0.965332 4.98058V6.01671C0.965332 7.13923 1.11867 8.26175 1.11867 8.26175C1.11867 8.26175 1.272 9.21212 1.702 9.64347C2.25467 10.1909 2.99067 10.1909 3.32867 10.2489C4.496 10.3643 8.33267 10.3927 8.33267 10.3927C8.33267 10.3927 11.4333 10.3927 13.4913 10.2489C13.7673 10.2192 14.4113 10.2192 14.9647 9.67185C15.394 9.24112 15.5473 8.29076 15.5473 8.29076C15.5473 8.29076 15.702 7.16824 15.702 6.04572V5.00896C15.702 3.85743 15.5473 2.73554 15.5473 2.73554Z" fill="#475569"/>
</svg>
